{"asset":{"version":"2.0","generator":"Makar Zhenya procedural mesh export"},"scene":0,"scenes":[{"nodes":[0]}],"nodes":[{"mesh":0}],"meshes":[{"primitives":[{"attributes":{"POSITION":0,"NORMAL":1},"indices":3,"material":0,"mode":4},{"attributes":{"POSITION":0,"NORMAL":1},"indices":4,"material":1,"mode":4},{"attributes":{"POSITION":0,"NORMAL":1},"indices":5,"material":1,"mode":4},{"attributes":{"POSITION":0,"NORMAL":1},"indices":6,"material":2,"mode":4},{"attributes":{"POSITION":0,"NORMAL":1},"indices":7,"material":2,"mode":4},{"attributes":{"POSITION":0,"NORMAL":1},"indices":8,"material":1,"mode":4},{"attributes":{"POSITION":0,"NORMAL":1},"indices":9,"material":0,"mode":4}]}],"materials":[{"name":"banknote green","pbrMetallicRoughness":{"baseColorFactor":[0.53,0.78,0.51,1],"metallicFactor":0,"roughnessFactor":0.84},"doubleSided":true},{"name":"engraved pattern","pbrMetallicRoughness":{"baseColorFactor":[0.08,0.31,0.18,1],"metallicFactor":0,"roughnessFactor":0.9},"doubleSided":true},{"name":"gold bands","pbrMetallicRoughness":{"baseColorFactor":[0.8,0.61,0.28,1],"metallicFactor":0.4,"roughnessFactor":0.4},"doubleSided":true}],"buffers":[{"uri":"data:application/octet-stream;base64,","byteLength":20544}],"bufferViews":[{"buffer":0,"byteOffset":0,"byteLength":6288,"target":34962},{"buffer":0,"byteOffset":6288,"byteLength":6288,"target":34962},{"buffer":0,"byteOffset":12576,"byteLength":7968,"target":34963}],"accessors":[{"bufferView":0,"componentType":5126,"count":524,"type":"VEC3","min":[-5,-5,-5],"max":[5,5,5]},{"bufferView":1,"componentType":5126,"count":524,"type":"VEC3"},{"bufferView":2,"componentType":5125,"count":1992,"type":"SCALAR"},{"bufferView":2,"byteOffset":0,"componentType":5125,"count":168,"type":"SCALAR"},{"bufferView":2,"byteOffset":672,"componentType":5125,"count":168,"type":"SCALAR"},{"bufferView":2,"byteOffset":1344,"componentType":5125,"count":168,"type":"SCALAR"},{"bufferView":2,"byteOffset":2016,"componentType":5125,"count":168,"type":"SCALAR"},{"bufferView":2,"byteOffset":2688,"componentType":5125,"count":168,"type":"SCALAR"},{"bufferView":2,"byteOffset":3360,"componentType":5125,"count":576,"type":"SCALAR"},{"bufferView":2,"byteOffset":5664,"componentType":5125,"count":576,"type":"SCALAR"}]}