{"asset":{"version":"2.0","generator":"Makar Zhenya procedural mesh export"},"scene":0,"scenes":[{"nodes":[0]}],"nodes":[{"mesh":0}],"meshes":[{"primitives":[{"attributes":{"POSITION":0,"NORMAL":1},"indices":3,"material":0,"mode":4},{"attributes":{"POSITION":0,"NORMAL":1},"indices":4,"material":1,"mode":4},{"attributes":{"POSITION":0,"NORMAL":1},"indices":5,"material":0,"mode":4},{"attributes":{"POSITION":0,"NORMAL":1},"indices":6,"material":2,"mode":4},{"attributes":{"POSITION":0,"NORMAL":1},"indices":7,"material":2,"mode":4},{"attributes":{"POSITION":0,"NORMAL":1},"indices":8,"material":0,"mode":4},{"attributes":{"POSITION":0,"NORMAL":1},"indices":9,"material":0,"mode":4},{"attributes":{"POSITION":0,"NORMAL":1},"indices":10,"material":0,"mode":4},{"attributes":{"POSITION":0,"NORMAL":1},"indices":11,"material":3,"mode":4},{"attributes":{"POSITION":0,"NORMAL":1},"indices":12,"material":3,"mode":4},{"attributes":{"POSITION":0,"NORMAL":1},"indices":13,"material":4,"mode":4},{"attributes":{"POSITION":0,"NORMAL":1},"indices":14,"material":1,"mode":4},{"attributes":{"POSITION":0,"NORMAL":1},"indices":15,"material":0,"mode":4},{"attributes":{"POSITION":0,"NORMAL":1},"indices":16,"material":0,"mode":4},{"attributes":{"POSITION":0,"NORMAL":1},"indices":17,"material":0,"mode":4},{"attributes":{"POSITION":0,"NORMAL":1},"indices":18,"material":3,"mode":4},{"attributes":{"POSITION":0,"NORMAL":1},"indices":19,"material":3,"mode":4},{"attributes":{"POSITION":0,"NORMAL":1},"indices":20,"material":4,"mode":4},{"attributes":{"POSITION":0,"NORMAL":1},"indices":21,"material":1,"mode":4},{"attributes":{"POSITION":0,"NORMAL":1},"indices":22,"material":4,"mode":4}]}],"materials":[{"name":"skin","pbrMetallicRoughness":{"baseColorFactor":[0.83,0.49,0.34,1],"metallicFactor":0,"roughnessFactor":0.55},"doubleSided":true},{"name":"hair","pbrMetallicRoughness":{"baseColorFactor":[0.09,0.045,0.1,1],"metallicFactor":0.1,"roughnessFactor":0.55},"doubleSided":true},{"name":"metallic purple rave outfit","pbrMetallicRoughness":{"baseColorFactor":[0.5,0.09,0.85,1],"metallicFactor":0.65,"roughnessFactor":0.2},"doubleSided":true},{"name":"silver boots","pbrMetallicRoughness":{"baseColorFactor":[0.65,0.8,0.95,1],"metallicFactor":0.8,"roughnessFactor":0.2},"doubleSided":true},{"name":"neon accessories","pbrMetallicRoughness":{"baseColorFactor":[0.04,0.88,1,1],"metallicFactor":0.3,"roughnessFactor":0.3},"doubleSided":true}],"buffers":[{"uri":"data:application/octet-stream;base64,","byteLength":58800}],"bufferViews":[{"buffer":0,"byteOffset":0,"byteLength":16680,"target":34962},{"buffer":0,"byteOffset":16680,"byteLength":16680,"target":34962},{"buffer":0,"byteOffset":33360,"byteLength":25440,"target":34963}],"accessors":[{"bufferView":0,"componentType":5126,"count":1390,"type":"VEC3","min":[-5,-5,-5],"max":[5,5,5]},{"bufferView":1,"componentType":5126,"count":1390,"type":"VEC3"},{"bufferView":2,"componentType":5125,"count":6360,"type":"SCALAR"},{"bufferView":2,"byteOffset":0,"componentType":5125,"count":576,"type":"SCALAR"},{"bufferView":2,"byteOffset":2304,"componentType":5125,"count":576,"type":"SCALAR"},{"bufferView":2,"byteOffset":4608,"componentType":5125,"count":576,"type":"SCALAR"},{"bufferView":2,"byteOffset":6912,"componentType":5125,"count":576,"type":"SCALAR"},{"bufferView":2,"byteOffset":9216,"componentType":5125,"count":576,"type":"SCALAR"},{"bufferView":2,"byteOffset":11520,"componentType":5125,"count":60,"type":"SCALAR"},{"bufferView":2,"byteOffset":11760,"componentType":5125,"count":60,"type":"SCALAR"},{"bufferView":2,"byteOffset":12000,"componentType":5125,"count":60,"type":"SCALAR"},{"bufferView":2,"byteOffset":12240,"componentType":5125,"count":60,"type":"SCALAR"},{"bufferView":2,"byteOffset":12480,"componentType":5125,"count":576,"type":"SCALAR"},{"bufferView":2,"byteOffset":14784,"componentType":5125,"count":576,"type":"SCALAR"},{"bufferView":2,"byteOffset":17088,"componentType":5125,"count":60,"type":"SCALAR"},{"bufferView":2,"byteOffset":17328,"componentType":5125,"count":60,"type":"SCALAR"},{"bufferView":2,"byteOffset":17568,"componentType":5125,"count":60,"type":"SCALAR"},{"bufferView":2,"byteOffset":17808,"componentType":5125,"count":60,"type":"SCALAR"},{"bufferView":2,"byteOffset":18048,"componentType":5125,"count":60,"type":"SCALAR"},{"bufferView":2,"byteOffset":18288,"componentType":5125,"count":576,"type":"SCALAR"},{"bufferView":2,"byteOffset":20592,"componentType":5125,"count":576,"type":"SCALAR"},{"bufferView":2,"byteOffset":22896,"componentType":5125,"count":60,"type":"SCALAR"},{"bufferView":2,"byteOffset":23136,"componentType":5125,"count":576,"type":"SCALAR"}]}