{"asset":{"version":"2.0","generator":"Makar Zhenya procedural mesh export"},"scene":0,"scenes":[{"nodes":[0]}],"nodes":[{"mesh":0}],"meshes":[{"primitives":[{"attributes":{"POSITION":0,"NORMAL":1},"indices":3,"material":0,"mode":4},{"attributes":{"POSITION":0,"NORMAL":1},"indices":4,"material":1,"mode":4},{"attributes":{"POSITION":0,"NORMAL":1},"indices":5,"material":3,"mode":4},{"attributes":{"POSITION":0,"NORMAL":1},"indices":6,"material":3,"mode":4},{"attributes":{"POSITION":0,"NORMAL":1},"indices":7,"material":2,"mode":4},{"attributes":{"POSITION":0,"NORMAL":1},"indices":8,"material":2,"mode":4}]}],"materials":[{"name":"amber glass","pbrMetallicRoughness":{"baseColorFactor":[0.59,0.24,0.045,0.8],"metallicFactor":0.14,"roughnessFactor":0.12},"doubleSided":true},{"name":"whisky","pbrMetallicRoughness":{"baseColorFactor":[0.43,0.14,0.018,1],"metallicFactor":0.02,"roughnessFactor":0.22},"doubleSided":true},{"name":"gold foil","pbrMetallicRoughness":{"baseColorFactor":[0.86,0.61,0.22,1],"metallicFactor":0.7,"roughnessFactor":0.24},"doubleSided":true},{"name":"dark label","pbrMetallicRoughness":{"baseColorFactor":[0.035,0.026,0.026,1],"metallicFactor":0.2,"roughnessFactor":0.35},"doubleSided":true}],"buffers":[{"uri":"data:application/octet-stream;base64,","byteLength":10512}],"bufferViews":[{"buffer":0,"byteOffset":0,"byteLength":3240,"target":34962},{"buffer":0,"byteOffset":3240,"byteLength":3240,"target":34962},{"buffer":0,"byteOffset":6480,"byteLength":4032,"target":34963}],"accessors":[{"bufferView":0,"componentType":5126,"count":270,"type":"VEC3","min":[-5,-5,-5],"max":[5,5,5]},{"bufferView":1,"componentType":5126,"count":270,"type":"VEC3"},{"bufferView":2,"componentType":5125,"count":1008,"type":"SCALAR"},{"bufferView":2,"byteOffset":0,"componentType":5125,"count":504,"type":"SCALAR"},{"bufferView":2,"byteOffset":2016,"componentType":5125,"count":168,"type":"SCALAR"},{"bufferView":2,"byteOffset":2688,"componentType":5125,"count":84,"type":"SCALAR"},{"bufferView":2,"byteOffset":3024,"componentType":5125,"count":84,"type":"SCALAR"},{"bufferView":2,"byteOffset":3360,"componentType":5125,"count":84,"type":"SCALAR"},{"bufferView":2,"byteOffset":3696,"componentType":5125,"count":84,"type":"SCALAR"}]}